<svg width="40" height="40" viewBox="0 0 40 40" fill="none" xmlns="http://www.w3.org/2000/svg">
<path d="M14.0248 6.896C15.2208 3.396 20.0568 3.29 21.4748 6.578L21.5948 6.898L23.2088 11.618C23.5786 12.7005 24.1764 13.691 24.9616 14.5228C25.7469 15.3547 26.7014 16.0084 27.7608 16.44L28.1948 16.602L32.9148 18.214C36.4148 19.41 36.5208 24.246 33.2348 25.664L32.9148 25.784L28.1948 27.398C27.1119 27.7676 26.121 28.3653 25.2888 29.1505C24.4566 29.9358 23.8025 30.8904 23.3708 31.95L23.2088 32.382L21.5968 37.104C20.4008 40.604 15.5648 40.71 14.1488 37.424L14.0248 37.104L12.4128 32.384C12.0431 31.3012 11.4455 30.3102 10.6602 29.478C9.87498 28.6459 8.92034 27.9918 7.86076 27.56L7.42876 27.398L2.70876 25.786C-0.793245 24.59 -0.899244 19.754 2.38876 18.338L2.70876 18.214L7.42876 16.602C8.51122 16.2321 9.50178 15.6344 10.3336 14.8491C11.1654 14.0639 11.8192 13.1094 12.2508 12.05L12.4128 11.618L14.0248 6.896ZM33.8108 3.61375e-07C34.1849 -4.71944e-07 34.5516 0.104957 34.8691 0.302943C35.1865 0.50093 35.4421 0.784005 35.6068 1.12L35.7028 1.354L36.4028 3.406L38.4568 4.106C38.8317 4.23339 39.1604 4.46923 39.4012 4.78363C39.642 5.09803 39.784 5.47684 39.8093 5.87204C39.8346 6.26725 39.742 6.66106 39.5432 7.00357C39.3444 7.34609 39.0484 7.62188 38.6928 7.796L38.4568 7.892L36.4048 8.592L35.7048 10.646C35.5771 11.0209 35.3411 11.3494 35.0266 11.59C34.7121 11.8306 34.3332 11.9724 33.938 11.9974C33.5428 12.0225 33.1491 11.9297 32.8067 11.7308C32.4643 11.5318 32.1887 11.2357 32.0148 10.88L31.9188 10.646L31.2188 8.594L29.1648 7.894C28.7898 7.76661 28.4611 7.53077 28.2203 7.21637C27.9795 6.90197 27.8375 6.52316 27.8122 6.12796C27.7869 5.73275 27.8795 5.33894 28.0783 4.99643C28.2771 4.65391 28.5731 4.37812 28.9288 4.204L29.1648 4.108L31.2168 3.408L31.9168 1.354C32.0516 0.958851 32.3068 0.615817 32.6464 0.372998C32.9861 0.130178 33.3932 -0.000250563 33.8108 3.61375e-07Z" fill="#421ABC"/>
</svg>
