<svg width="42" height="38" viewBox="0 0 42 38" fill="none" xmlns="http://www.w3.org/2000/svg">
<path d="M40.35 12.825C39.2959 10.3299 37.7676 8.063 35.85 6.15C33.937 4.23238 31.6701 2.70415 29.175 1.65C26.5828 0.553125 23.8359 0 21 0C18.1641 0 15.4172 0.553125 12.825 1.65C10.3299 2.70415 8.063 4.23238 6.15 6.15C4.23238 8.063 2.70415 10.3299 1.65 12.825C0.553125 15.4172 0 18.1641 0 21C0 27.2203 2.73281 33.0797 7.49531 37.0828L7.575 37.1484C7.84688 37.3734 8.18906 37.5 8.54062 37.5H33.4641C33.8156 37.5 34.1578 37.3734 34.4297 37.1484L34.5094 37.0828C39.2672 33.0797 42 27.2203 42 21C42 18.1641 41.4422 15.4172 40.35 12.825ZM19.5938 5.625C19.5938 5.41875 19.7625 5.25 19.9688 5.25H22.0312C22.2375 5.25 22.4062 5.41875 22.4062 5.625V9.375C22.4062 9.58125 22.2375 9.75 22.0312 9.75H19.9688C19.7625 9.75 19.5938 9.58125 19.5938 9.375V5.625ZM9.65625 22.0312C9.65625 22.2375 9.4875 22.4062 9.28125 22.4062H5.53125C5.325 22.4062 5.15625 22.2375 5.15625 22.0312V19.9688C5.15625 19.7625 5.325 19.5938 5.53125 19.5938H9.28125C9.4875 19.5938 9.65625 19.7625 9.65625 19.9688V22.0312ZM13.9078 12.4453L12.45 13.9031C12.3795 13.9729 12.2843 14.0121 12.1852 14.0121C12.086 14.0121 11.9908 13.9729 11.9203 13.9031L9.26719 11.25C9.1974 11.1795 9.15825 11.0843 9.15825 10.9852C9.15825 10.886 9.1974 10.7908 9.26719 10.7203L10.725 9.2625C10.8703 9.11719 11.1094 9.11719 11.2547 9.2625L13.9078 11.9156C14.0531 12.0609 14.0531 12.3 13.9078 12.4453ZM27.5531 16.3641L23.5922 20.325C23.8266 21.2016 23.6016 22.1719 22.9125 22.8609C22.6689 23.105 22.3796 23.2986 22.061 23.4307C21.7425 23.5628 21.4011 23.6308 21.0563 23.6309C20.7114 23.6308 20.37 23.5628 20.0515 23.4307C19.7329 23.2986 19.4436 23.105 19.2 22.8609C18.9559 22.6173 18.7623 22.328 18.6302 22.0095C18.4981 21.691 18.4301 21.3495 18.4301 21.0047C18.4301 20.6599 18.4981 20.3184 18.6302 19.9999C18.7623 19.6814 18.9559 19.392 19.2 19.1484C19.5255 18.822 19.9314 18.5872 20.3766 18.4679C20.8219 18.3485 21.2908 18.3488 21.7359 18.4688L25.6969 14.5078C25.8422 14.3625 26.0812 14.3625 26.2266 14.5078L27.5531 15.8344C27.6984 15.9797 27.6984 16.2141 27.5531 16.3641ZM29.5687 13.9078L28.1109 12.45C28.0411 12.3795 28.002 12.2843 28.002 12.1852C28.002 12.086 28.0411 11.9908 28.1109 11.9203L30.7641 9.26719C30.9094 9.12188 31.1484 9.12188 31.2937 9.26719L32.7516 10.725C32.8969 10.8703 32.8969 11.1094 32.7516 11.2547L30.0984 13.9078C30.028 13.9776 29.9328 14.0168 29.8336 14.0168C29.7344 14.0168 29.6392 13.9776 29.5687 13.9078ZM36.6562 22.0312C36.6562 22.2375 36.4875 22.4062 36.2812 22.4062H32.5312C32.325 22.4062 32.1562 22.2375 32.1562 22.0312V19.9688C32.1562 19.7625 32.325 19.5938 32.5312 19.5938H36.2812C36.4875 19.5938 36.6562 19.7625 36.6562 19.9688V22.0312Z" fill="#421ABC"/>
</svg>
