<svg width="40" height="41" viewBox="0 0 40 41" fill="none" xmlns="http://www.w3.org/2000/svg">
<path fill-rule="evenodd" clip-rule="evenodd" d="M0 20.5C0 9.17762 8.98453 0 20.0672 0C30.2679 0 38.5338 8.04511 39.9203 17.743C40.5659 22.2566 37.2052 25.9922 32.8199 25.9931C32.0798 25.9931 31.338 25.9767 30.6318 25.9621L30.432 25.9576C29.7102 25.9385 28.9882 25.9315 28.2661 25.9366C26.8484 25.9548 25.9736 26.0824 25.551 26.2974C24.6629 26.7511 23.8488 28.188 24.5612 29.9637C25.0115 31.0844 25.3842 31.959 25.6901 32.6761L25.7231 32.7544C26.0289 33.4724 26.2822 34.0683 26.4614 34.5748C26.6451 35.0942 26.7779 35.5907 26.8136 36.1219C26.851 36.6622 26.7824 37.1578 26.6593 37.6699C26.3178 39.0985 25.2665 39.9449 24.0886 40.4041C22.9428 40.8506 21.5304 41 20.0672 41C8.98453 41 0 31.8224 0 20.5ZM23.6294 15.9444C24.8119 15.9444 25.9459 15.4645 26.782 14.6102C27.6181 13.7558 28.0878 12.5971 28.0878 11.3889C28.0878 10.1807 27.6181 9.02196 26.782 8.16762C25.9459 7.31329 24.8119 6.83333 23.6294 6.83333C22.447 6.83333 21.313 7.31329 20.4769 8.16762C19.6408 9.02196 19.171 10.1807 19.171 11.3889C19.171 12.5971 19.6408 13.7558 20.4769 14.6102C21.313 15.4645 22.447 15.9444 23.6294 15.9444ZM15.6043 18.2222C15.6043 19.3096 15.1816 20.3525 14.4291 21.1214C13.6766 21.8903 12.656 22.3222 11.5918 22.3222C10.5276 22.3222 9.50699 21.8903 8.75449 21.1214C8.002 20.3525 7.57925 19.3096 7.57925 18.2222C7.57925 17.1348 8.002 16.092 8.75449 15.3231C9.50699 14.5542 10.5276 14.1222 11.5918 14.1222C12.656 14.1222 13.6766 14.5542 14.4291 15.3231C15.1816 16.092 15.6043 17.1348 15.6043 18.2222ZM15.1585 33.2556C15.9862 33.2556 16.78 32.9196 17.3653 32.3216C17.9506 31.7235 18.2794 30.9124 18.2794 30.0667C18.2794 29.2209 17.9506 28.4098 17.3653 27.8118C16.78 27.2138 15.9862 26.8778 15.1585 26.8778C14.3308 26.8778 13.537 27.2138 12.9517 27.8118C12.3664 28.4098 12.0376 29.2209 12.0376 30.0667C12.0376 30.9124 12.3664 31.7235 12.9517 32.3216C13.537 32.9196 14.3308 33.2556 15.1585 33.2556Z" fill="#421ABC"/>
</svg>
